<svg xmlns="http://www.w3.org/2000/svg" viewBox="0 0 900 1100" width="900" height="1100">
  <defs>
    <marker id="arrow" viewBox="0 0 10 10" refX="8" refY="5" markerWidth="6" markerHeight="6" orient="auto-start-reverse">
      <path d="M2 1L8 5L2 9" fill="none" stroke="#4a9eff" stroke-width="1.5" stroke-linecap="round" stroke-linejoin="round"/>
    </marker>
    <marker id="arrow-gray" viewBox="0 0 10 10" refX="8" refY="5" markerWidth="6" markerHeight="6" orient="auto-start-reverse">
      <path d="M2 1L8 5L2 9" fill="none" stroke="#8b949e" stroke-width="1.5" stroke-linecap="round" stroke-linejoin="round"/>
    </marker>
  </defs>

  <!-- Background -->
  <rect width="900" height="1100" fill="#0d1117"/>

  <!-- Title -->
  <text x="450" y="32" text-anchor="middle" font-family="Segoe UI, sans-serif" font-size="15" font-weight="600" fill="#e6edf3">GitOps Zero Touch Deployment — AWS Architecture</text>

  <!-- ── PIPELINE FLOW TOP ── -->
  <!-- Developer -->
  <rect x="30" y="50" width="90" height="44" rx="6" fill="#161b22" stroke="#3fb950" stroke-width="1"/>
  <text x="75" y="68" text-anchor="middle" font-family="Segoe UI, sans-serif" font-size="10" font-weight="600" fill="#3fb950">Developer</text>
  <text x="75" y="83" text-anchor="middle" font-family="Segoe UI, sans-serif" font-size="9" fill="#8b949e">git push</text>

  <line x1="120" y1="72" x2="148" y2="72" stroke="#4a9eff" stroke-width="1.2" marker-end="url(#arrow)"/>

  <!-- GitHub infra-gitops -->
  <rect x="150" y="50" width="108" height="44" rx="6" fill="#160d2a" stroke="#8b5cf6" stroke-width="1"/>
  <text x="204" y="68" text-anchor="middle" font-family="Segoe UI, sans-serif" font-size="10" font-weight="600" fill="#8b5cf6">infra-gitops</text>
  <text x="204" y="83" text-anchor="middle" font-family="Segoe UI, sans-serif" font-size="9" fill="#8b949e">GitHub repo</text>

  <line x1="258" y1="72" x2="286" y2="72" stroke="#4a9eff" stroke-width="1.2" marker-end="url(#arrow)"/>

  <!-- GitHub Actions -->
  <rect x="288" y="50" width="108" height="44" rx="6" fill="#1a2332" stroke="#4a9eff" stroke-width="1"/>
  <text x="342" y="68" text-anchor="middle" font-family="Segoe UI, sans-serif" font-size="10" font-weight="600" fill="#4a9eff">GitHub Actions</text>
  <text x="342" y="83" text-anchor="middle" font-family="Segoe UI, sans-serif" font-size="9" fill="#8b949e">Build · Push · Update</text>

  <line x1="396" y1="72" x2="424" y2="72" stroke="#4a9eff" stroke-width="1.2" marker-end="url(#arrow)"/>

  <!-- ECR -->
  <rect x="426" y="50" width="90" height="44" rx="6" fill="#1a0e00" stroke="#ff7b29" stroke-width="1"/>
  <text x="471" y="68" text-anchor="middle" font-family="Segoe UI, sans-serif" font-size="10" font-weight="600" fill="#ff7b29">AWS ECR</text>
  <text x="471" y="83" text-anchor="middle" font-family="Segoe UI, sans-serif" font-size="9" fill="#8b949e">Image registry</text>

  <line x1="516" y1="72" x2="544" y2="72" stroke="#4a9eff" stroke-width="1.2" marker-end="url(#arrow)"/>

  <!-- k8s-manifests -->
  <rect x="546" y="50" width="108" height="44" rx="6" fill="#160d2a" stroke="#8b5cf6" stroke-width="1"/>
  <text x="600" y="68" text-anchor="middle" font-family="Segoe UI, sans-serif" font-size="10" font-weight="600" fill="#8b5cf6">k8s-manifests</text>
  <text x="600" y="83" text-anchor="middle" font-family="Segoe UI, sans-serif" font-size="9" fill="#8b949e">GitHub repo</text>

  <line x1="654" y1="72" x2="682" y2="72" stroke="#4a9eff" stroke-width="1.2" marker-end="url(#arrow)"/>

  <!-- ArgoCD -->
  <rect x="684" y="50" width="90" height="44" rx="6" fill="#0d1827" stroke="#4a9eff" stroke-width="1"/>
  <text x="729" y="68" text-anchor="middle" font-family="Segoe UI, sans-serif" font-size="10" font-weight="600" fill="#4a9eff">ArgoCD</text>
  <text x="729" y="83" text-anchor="middle" font-family="Segoe UI, sans-serif" font-size="9" fill="#8b949e">Auto-sync</text>

  <!-- Slack (below arrow) -->
  <line x1="342" y1="94" x2="342" y2="116" stroke="#8b949e" stroke-width="1" stroke-dasharray="3 3" marker-end="url(#arrow-gray)"/>
  <rect x="288" y="118" width="108" height="36" rx="6" fill="#1a1a0d" stroke="#e3b341" stroke-width="1"/>
  <text x="342" y="132" text-anchor="middle" font-family="Segoe UI, sans-serif" font-size="10" font-weight="600" fill="#e3b341">Slack</text>
  <text x="342" y="146" text-anchor="middle" font-family="Segoe UI, sans-serif" font-size="9" fill="#8b949e">Deploy · Fail alerts</text>

  <!-- Terraform (below GitHub Actions) -->
  <line x1="204" y1="94" x2="204" y2="116" stroke="#8b949e" stroke-width="1" stroke-dasharray="3 3" marker-end="url(#arrow-gray)"/>
  <rect x="150" y="118" width="108" height="36" rx="6" fill="#1a0d1a" stroke="#8b5cf6" stroke-width="1"/>
  <text x="204" y="132" text-anchor="middle" font-family="Segoe UI, sans-serif" font-size="10" font-weight="600" fill="#8b5cf6">Terraform</text>
  <text x="204" y="146" text-anchor="middle" font-family="Segoe UI, sans-serif" font-size="9" fill="#8b949e">Infra as code</text>

  <!-- Rollback note -->
  <rect x="684" y="118" width="90" height="36" rx="6" fill="#1a1000" stroke="#e3b341" stroke-width="1" stroke-dasharray="4 2"/>
  <text x="729" y="132" text-anchor="middle" font-family="Segoe UI, sans-serif" font-size="10" font-weight="600" fill="#e3b341">Rollback</text>
  <text x="729" y="146" text-anchor="middle" font-family="Segoe UI, sans-serif" font-size="9" fill="#8b949e">git revert</text>
  <line x1="729" y1="94" x2="729" y2="116" stroke="#8b949e" stroke-width="1" stroke-dasharray="3 3" marker-end="url(#arrow-gray)"/>

  <!-- ── AWS CLOUD BOX ── -->
  <rect x="20" y="168" width="860" height="900" rx="10" fill="#0d1827" stroke="#4a9eff" stroke-width="1.5"/>
  <rect x="20" y="158" width="90" height="18" rx="3" fill="#0d1117"/>
  <text x="28" y="171" font-family="Segoe UI, sans-serif" font-size="11" font-weight="600" fill="#4a9eff">AWS Cloud</text>

  <!-- Arrow from ArgoCD into AWS -->
  <line x1="729" y1="94" x2="729" y2="168" stroke="#4a9eff" stroke-width="1.2" stroke-dasharray="4 3" marker-end="url(#arrow)"/>

  <!-- ── REGION BOX ── -->
  <rect x="34" y="192" width="832" height="860" rx="8" fill="#0d1a11" stroke="#3fb950" stroke-width="1.2"/>
  <rect x="34" y="182" width="120" height="18" rx="3" fill="#0d1117"/>
  <text x="42" y="195" font-family="Segoe UI, sans-serif" font-size="10" font-weight="600" fill="#3fb950">Region: us-east-1</text>

  <!-- Region services row -->
  <!-- S3 -->
  <rect x="50" y="210" width="72" height="44" rx="6" fill="#1a0e00" stroke="#ff7b29" stroke-width="0.8"/>
  <text x="86" y="228" text-anchor="middle" font-family="Segoe UI, sans-serif" font-size="10" font-weight="600" fill="#ff7b29">Amazon S3</text>
  <text x="86" y="243" text-anchor="middle" font-family="Segoe UI, sans-serif" font-size="9" fill="#8b949e">Terraform state</text>

  <!-- ECR region -->
  <rect x="134" y="210" width="72" height="44" rx="6" fill="#1a0e00" stroke="#ff7b29" stroke-width="0.8"/>
  <text x="170" y="228" text-anchor="middle" font-family="Segoe UI, sans-serif" font-size="10" font-weight="600" fill="#ff7b29">Amazon ECR</text>
  <text x="170" y="243" text-anchor="middle" font-family="Segoe UI, sans-serif" font-size="9" fill="#8b949e">Docker images</text>

  <!-- IAM -->
  <rect x="218" y="210" width="72" height="44" rx="6" fill="#1a1500" stroke="#e3b341" stroke-width="0.8"/>
  <text x="254" y="228" text-anchor="middle" font-family="Segoe UI, sans-serif" font-size="10" font-weight="600" fill="#e3b341">IAM Role</text>
  <text x="254" y="243" text-anchor="middle" font-family="Segoe UI, sans-serif" font-size="9" fill="#8b949e">GitHub Actions</text>

  <!-- Sealed Secrets -->
  <rect x="302" y="210" width="84" height="44" rx="6" fill="#0d0d1a" stroke="#8b5cf6" stroke-width="0.8"/>
  <text x="344" y="228" text-anchor="middle" font-family="Segoe UI, sans-serif" font-size="10" font-weight="600" fill="#8b5cf6">Sealed Secrets</text>
  <text x="344" y="243" text-anchor="middle" font-family="Segoe UI, sans-serif" font-size="9" fill="#8b949e">Encrypted in git</text>

  <!-- ArgoCD (in cluster) -->
  <rect x="398" y="210" width="84" height="44" rx="6" fill="#0d1827" stroke="#4a9eff" stroke-width="0.8"/>
  <text x="440" y="228" text-anchor="middle" font-family="Segoe UI, sans-serif" font-size="10" font-weight="600" fill="#4a9eff">ArgoCD</text>
  <text x="440" y="243" text-anchor="middle" font-family="Segoe UI, sans-serif" font-size="9" fill="#8b949e">Self-heal · Sync</text>

  <!-- ── VPC BOX ── -->
  <rect x="48" y="270" width="804" height="768" rx="8" fill="#1a1500" stroke="#e3b341" stroke-width="1.2"/>
  <rect x="48" y="260" width="48" height="18" rx="3" fill="#0d1117"/>
  <text x="56" y="273" font-family="Segoe UI, sans-serif" font-size="10" font-weight="600" fill="#e3b341">VPC</text>

  <!-- Internet Gateway -->
  <rect x="360" y="286" width="140" height="36" rx="6" fill="#1a0d00" stroke="#ff7b29" stroke-width="1"/>
  <text x="430" y="300" text-anchor="middle" font-family="Segoe UI, sans-serif" font-size="10" font-weight="600" fill="#ff7b29">Internet Gateway</text>
  <text x="430" y="314" text-anchor="middle" font-family="Segoe UI, sans-serif" font-size="9" fill="#8b949e">Public internet access</text>

  <!-- NLB -->
  <rect x="330" y="336" width="200" height="36" rx="6" fill="#0d1827" stroke="#4a9eff" stroke-width="1"/>
  <text x="430" y="350" text-anchor="middle" font-family="Segoe UI, sans-serif" font-size="10" font-weight="600" fill="#4a9eff">Network Load Balancer</text>
  <text x="430" y="364" text-anchor="middle" font-family="Segoe UI, sans-serif" font-size="9" fill="#8b949e">Routes traffic to pods</text>

  <line x1="430" y1="322" x2="430" y2="334" stroke="#ff7b29" stroke-width="1" marker-end="url(#arrow)"/>

  <!-- ── AZ ROW ── -->

  <!-- AZ a -->
  <rect x="64" y="386" width="354" height="636" rx="6" fill="#0d1117" stroke="#e3b341" stroke-width="1" stroke-dasharray="5 3"/>
  <rect x="64" y="376" width="124" height="18" rx="3" fill="#0d1117"/>
  <text x="72" y="389" font-family="Segoe UI, sans-serif" font-size="10" font-weight="600" fill="#e3b341">Availability Zone: a</text>

  <!-- AZ a Public Subnet -->
  <rect x="80" y="400" width="322" height="60" rx="5" fill="#0d1a0d" stroke="#3fb950" stroke-width="1"/>
  <text x="96" y="418" font-family="Segoe UI, sans-serif" font-size="9" font-weight="600" fill="#3fb950">Public Subnet — 10.0.101.0/24</text>
  <rect x="160" y="428" width="104" height="26" rx="4" fill="#0d1a0d" stroke="#3fb950" stroke-width="0.8"/>
  <text x="212" y="445" text-anchor="middle" font-family="Segoe UI, sans-serif" font-size="9" fill="#3fb950">NAT Gateway</text>

  <!-- AZ a Private App Subnet -->
  <rect x="80" y="474" width="322" height="340" rx="5" fill="#0d1827" stroke="#4a9eff" stroke-width="1"/>
  <text x="96" y="492" font-family="Segoe UI, sans-serif" font-size="9" font-weight="600" fill="#4a9eff">Private Subnet: App — 10.0.1.0/24</text>

  <!-- EKS AZ a -->
  <rect x="96" y="500" width="290" height="298" rx="5" fill="#1a0e00" stroke="#ff7b29" stroke-width="1" stroke-dasharray="4 2"/>
  <text x="112" y="518" font-family="Segoe UI, sans-serif" font-size="9" font-weight="600" fill="#ff7b29">Amazon EKS Cluster</text>

  <!-- Staging NS -->
  <rect x="112" y="526" width="258" height="120" rx="4" fill="#0d1a0d" stroke="#3fb950" stroke-width="0.8" stroke-dasharray="3 2"/>
  <text x="120" y="542" font-family="Segoe UI, sans-serif" font-size="9" font-weight="600" fill="#3fb950">Staging namespace</text>
  <rect x="120" y="550" width="110" height="22" rx="3" fill="#161b22" stroke="#30363d" stroke-width="0.6"/>
  <text x="175" y="565" text-anchor="middle" font-family="Segoe UI, sans-serif" font-size="8" fill="#8b949e">deployment</text>
  <rect x="120" y="578" width="110" height="22" rx="3" fill="#161b22" stroke="#30363d" stroke-width="0.6"/>
  <text x="175" y="593" text-anchor="middle" font-family="Segoe UI, sans-serif" font-size="8" fill="#8b949e">service</text>
  <rect x="240" y="550" width="120" height="50" rx="3" fill="#161b22" stroke="#ff7b29" stroke-width="0.6"/>
  <text x="300" y="569" text-anchor="middle" font-family="Segoe UI, sans-serif" font-size="8" fill="#ff7b29">pod</text>
  <text x="300" y="583" text-anchor="middle" font-family="Segoe UI, sans-serif" font-size="8" fill="#8b949e">myapp:latest</text>
  <text x="300" y="595" text-anchor="middle" font-family="Segoe UI, sans-serif" font-size="7" fill="#3fb950">Running ✓</text>

  <!-- Production NS -->
  <rect x="112" y="656" width="258" height="130" rx="4" fill="#1a0e00" stroke="#e3b341" stroke-width="0.8" stroke-dasharray="3 2"/>
  <text x="120" y="672" font-family="Segoe UI, sans-serif" font-size="9" font-weight="600" fill="#e3b341">Production namespace</text>
  <rect x="120" y="680" width="110" height="22" rx="3" fill="#161b22" stroke="#30363d" stroke-width="0.6"/>
  <text x="175" y="695" text-anchor="middle" font-family="Segoe UI, sans-serif" font-size="8" fill="#8b949e">deployment</text>
  <rect x="120" y="708" width="110" height="22" rx="3" fill="#161b22" stroke="#30363d" stroke-width="0.6"/>
  <text x="175" y="723" text-anchor="middle" font-family="Segoe UI, sans-serif" font-size="8" fill="#8b949e">service (LoadBalancer)</text>
  <rect x="240" y="680" width="120" height="60" rx="3" fill="#161b22" stroke="#ff7b29" stroke-width="0.6"/>
  <text x="300" y="699" text-anchor="middle" font-family="Segoe UI, sans-serif" font-size="8" fill="#ff7b29">pod x2</text>
  <text x="300" y="713" text-anchor="middle" font-family="Segoe UI, sans-serif" font-size="8" fill="#8b949e">myapp:latest</text>
  <text x="300" y="727" text-anchor="middle" font-family="Segoe UI, sans-serif" font-size="7" fill="#3fb950">Running ✓</text>

  <!-- AZ b -->
  <rect x="442" y="386" width="354" height="636" rx="6" fill="#0d1117" stroke="#e3b341" stroke-width="1" stroke-dasharray="5 3"/>
  <rect x="442" y="376" width="124" height="18" rx="3" fill="#0d1117"/>
  <text x="450" y="389" font-family="Segoe UI, sans-serif" font-size="10" font-weight="600" fill="#e3b341">Availability Zone: b</text>

  <!-- AZ b Public Subnet -->
  <rect x="458" y="400" width="322" height="60" rx="5" fill="#0d1a0d" stroke="#3fb950" stroke-width="1"/>
  <text x="474" y="418" font-family="Segoe UI, sans-serif" font-size="9" font-weight="600" fill="#3fb950">Public Subnet — 10.0.102.0/24</text>
  <rect x="538" y="428" width="104" height="26" rx="4" fill="#0d1a0d" stroke="#3fb950" stroke-width="0.8"/>
  <text x="590" y="445" text-anchor="middle" font-family="Segoe UI, sans-serif" font-size="9" fill="#3fb950">NAT Gateway</text>

  <!-- AZ b Private App Subnet -->
  <rect x="458" y="474" width="322" height="340" rx="5" fill="#0d1827" stroke="#4a9eff" stroke-width="1"/>
  <text x="474" y="492" font-family="Segoe UI, sans-serif" font-size="9" font-weight="600" fill="#4a9eff">Private Subnet: App — 10.0.2.0/24</text>

  <!-- EKS AZ b -->
  <rect x="474" y="500" width="290" height="298" rx="5" fill="#1a0e00" stroke="#ff7b29" stroke-width="1" stroke-dasharray="4 2"/>
  <text x="490" y="518" font-family="Segoe UI, sans-serif" font-size="9" font-weight="600" fill="#ff7b29">Amazon EKS Node (t3.small)</text>

  <!-- Staging NS AZ b -->
  <rect x="490" y="526" width="258" height="120" rx="4" fill="#0d1a0d" stroke="#3fb950" stroke-width="0.8" stroke-dasharray="3 2"/>
  <text x="498" y="542" font-family="Segoe UI, sans-serif" font-size="9" font-weight="600" fill="#3fb950">Staging namespace</text>
  <rect x="498" y="550" width="110" height="22" rx="3" fill="#161b22" stroke="#30363d" stroke-width="0.6"/>
  <text x="553" y="565" text-anchor="middle" font-family="Segoe UI, sans-serif" font-size="8" fill="#8b949e">deployment</text>
  <rect x="498" y="578" width="110" height="22" rx="3" fill="#161b22" stroke="#30363d" stroke-width="0.6"/>
  <text x="553" y="593" text-anchor="middle" font-family="Segoe UI, sans-serif" font-size="8" fill="#8b949e">service</text>
  <rect x="618" y="550" width="120" height="50" rx="3" fill="#161b22" stroke="#ff7b29" stroke-width="0.6"/>
  <text x="678" y="569" text-anchor="middle" font-family="Segoe UI, sans-serif" font-size="8" fill="#ff7b29">pod</text>
  <text x="678" y="583" text-anchor="middle" font-family="Segoe UI, sans-serif" font-size="8" fill="#8b949e">myapp:latest</text>
  <text x="678" y="595" text-anchor="middle" font-family="Segoe UI, sans-serif" font-size="7" fill="#3fb950">Running ✓</text>

  <!-- Production NS AZ b -->
  <rect x="490" y="656" width="258" height="130" rx="4" fill="#1a0e00" stroke="#e3b341" stroke-width="0.8" stroke-dasharray="3 2"/>
  <text x="498" y="672" font-family="Segoe UI, sans-serif" font-size="9" font-weight="600" fill="#e3b341">Production namespace</text>
  <rect x="498" y="680" width="110" height="22" rx="3" fill="#161b22" stroke="#30363d" stroke-width="0.6"/>
  <text x="553" y="695" text-anchor="middle" font-family="Segoe UI, sans-serif" font-size="8" fill="#8b949e">deployment</text>
  <rect x="498" y="708" width="110" height="22" rx="3" fill="#161b22" stroke="#30363d" stroke-width="0.6"/>
  <text x="553" y="723" text-anchor="middle" font-family="Segoe UI, sans-serif" font-size="8" fill="#8b949e">service (LoadBalancer)</text>
  <rect x="618" y="680" width="120" height="60" rx="3" fill="#161b22" stroke="#ff7b29" stroke-width="0.6"/>
  <text x="678" y="699" text-anchor="middle" font-family="Segoe UI, sans-serif" font-size="8" fill="#ff7b29">pod x2</text>
  <text x="678" y="713" text-anchor="middle" font-family="Segoe UI, sans-serif" font-size="8" fill="#8b949e">myapp:latest</text>
  <text x="678" y="727" text-anchor="middle" font-family="Segoe UI, sans-serif" font-size="7" fill="#3fb950">Running ✓</text>

  <!-- AZ a ↔ AZ b service arrow -->
  <line x1="402" y1="600" x2="458" y2="600" stroke="#4a9eff" stroke-width="1" stroke-dasharray="3 3" marker-end="url(#arrow)"/>

  <!-- NLB arrows down to AZs -->
  <line x1="380" y1="372" x2="260" y2="398" stroke="#4a9eff" stroke-width="1" stroke-dasharray="3 3" marker-end="url(#arrow)"/>
  <line x1="480" y1="372" x2="590" y2="398" stroke="#4a9eff" stroke-width="1" stroke-dasharray="3 3" marker-end="url(#arrow)"/>

  <!-- Self heal banner -->
  <rect x="64" y="836" width="736" height="34" rx="5" fill="#0d0d1a" stroke="#8b5cf6" stroke-width="0.8" stroke-dasharray="4 2"/>
  <text x="432" y="858" text-anchor="middle" font-family="Segoe UI, sans-serif" font-size="10" fill="#8b5cf6">ArgoCD self-heals cluster — any manual kubectl change is automatically reverted to match k8s-manifests repo</text>

  <!-- Legend -->
  <rect x="64" y="880" width="736" height="60" rx="5" fill="#161b22" stroke="#30363d" stroke-width="0.8"/>
  <text x="432" y="898" text-anchor="middle" font-family="Segoe UI, sans-serif" font-size="9" font-weight="600" fill="#e6edf3">Legend</text>
  <rect x="80" y="908" width="10" height="10" rx="2" fill="#0d1827" stroke="#4a9eff" stroke-width="1"/>
  <text x="95" y="918" font-family="Segoe UI, sans-serif" font-size="8" fill="#8b949e">AWS boundary</text>
  <rect x="185" y="908" width="10" height="10" rx="2" fill="#0d1a0d" stroke="#3fb950" stroke-width="1"/>
  <text x="200" y="918" font-family="Segoe UI, sans-serif" font-size="8" fill="#8b949e">Public subnet</text>
  <rect x="285" y="908" width="10" height="10" rx="2" fill="#1a1500" stroke="#e3b341" stroke-width="1"/>
  <text x="300" y="918" font-family="Segoe UI, sans-serif" font-size="8" fill="#8b949e">VPC / AZ</text>
  <rect x="375" y="908" width="10" height="10" rx="2" fill="#1a0e00" stroke="#ff7b29" stroke-width="1"/>
  <text x="390" y="918" font-family="Segoe UI, sans-serif" font-size="8" fill="#8b949e">EKS / ECR</text>
  <rect x="455" y="908" width="10" height="10" rx="2" fill="#160d2a" stroke="#8b5cf6" stroke-width="1"/>
  <text x="470" y="918" font-family="Segoe UI, sans-serif" font-size="8" fill="#8b949e">GitOps / Secrets</text>
  <rect x="560" y="908" width="10" height="10" rx="2" fill="#1a1a0d" stroke="#e3b341" stroke-width="1"/>
  <text x="575" y="918" font-family="Segoe UI, sans-serif" font-size="8" fill="#8b949e">Notifications</text>
  <text x="432" y="932" text-anchor="middle" font-family="Segoe UI, sans-serif" font-size="8" fill="#4a9eff">Push code → GitHub Actions → ECR → ArgoCD → EKS → Live</text>

</svg>
